# xmcd CD database file
#
# Track frame offsets:
#	150
#	14137
#	27975
#	42393
#	53902
#	69018
#	83475
#	96528
#	107667
#	123220
#	135888
#	148691
#	160457
#	174508
#	187951
#	200534
#	214457
#	227191
#	239838
#	253253
#
# Disc length: 3530 seconds
#
# Revision: 0
# Processed by: cddbd v1.5.2PL0 Copyright (c) Steve Scherf et al.
# Submitted via: CDex 1.70beta2
#
DISCID=250dc814
DTITLE=Fats Waller - Jazz Roads CD158 - Swing - Fats Waller Vol.3 (1935)
DYEAR=2006
DGENRE=Jazz
TTITLE0=I'm A Hundred Per Cent For You (vocal) 
TTITLE1=I'm A Hundred Per Cent For You (non vocal) 
TTITLE2=Baby Brown (vocal) 
TTITLE3=Baby Brown (non vocal)
TTITLE4=Night Wind 
TTITLE5=Because Of Once Upon A Time 
TTITLE6=I Believe In Miracles 
TTITLE7=You Fit Into The Picture 
TTITLE8=Louisiana Fairy Tale 
TTITLE9=I Ain't Got Nobody (vocal)
TTITLE10=I Ain't Got Nobody (non vocal)
TTITLE11=Whose Honey Are You (vocal)
TTITLE12=Whose Honey Are You (non vocal)
TTITLE13=Rosetta (vocal)
TTITLE14=Rosetta (non vocal)
TTITLE15=Pardon My Love 
TTITLE16=What's The Reason (vocal)
TTITLE17=What's The Reason (non vocal)
TTITLE18=Cinders 
TTITLE19=(Oh Susannah) Dust Off That Old Pianna 
EXTD=YEAR: 2006
EXTT0=
EXTT1=
EXTT2=
EXTT3=
EXTT4=
EXTT5=
EXTT6=
EXTT7=
EXTT8=
EXTT9=
EXTT10=
EXTT11=
EXTT12=
EXTT13=
EXTT14=
EXTT15=
EXTT16=
EXTT17=
EXTT18=
EXTT19=
PLAYORDER=
